<svg width="20" height="20" viewBox="0 0 20 20" fill="none" xmlns="http://www.w3.org/2000/svg">
<path fill-rule="evenodd" clip-rule="evenodd" d="M10.0005 -0.0010376C7.28448 -0.0010376 6.94363 0.0108385 5.87689 0.0593824C4.81224 0.108136 4.08553 0.276689 3.44966 0.523995C2.79191 0.779428 2.23396 1.12112 1.67809 1.67719C1.1218 2.23306 0.780114 2.79101 0.523848 3.44855C0.275916 4.08463 0.107155 4.81155 0.0592356 5.87579C0.0115242 6.94252 -0.000976562 7.28359 -0.000976562 9.99959C-0.000976562 12.7156 0.0111074 13.0554 0.0594435 14.1221C0.108405 15.1868 0.276958 15.9135 0.524056 16.5494C0.779697 17.2071 1.12139 17.7651 1.67746 18.3209C2.23312 18.8772 2.79107 19.2197 3.44841 19.4752C4.0847 19.7225 4.81162 19.891 5.87606 19.9398C6.94279 19.9883 7.28344 20.0002 9.99923 20.0002C12.7154 20.0002 13.0553 19.9883 14.122 19.9398C15.1866 19.891 15.9142 19.7225 16.5505 19.4752C17.208 19.2197 17.7651 18.8772 18.3208 18.3209C18.8771 17.7651 19.2188 17.2071 19.475 16.5496C19.7209 15.9135 19.8896 15.1866 19.9396 14.1223C19.9876 13.0556 20.0001 12.7156 20.0001 9.99959C20.0001 7.28359 19.9876 6.94273 19.9396 5.876C19.8896 4.81135 19.7209 4.08463 19.475 3.44876C19.2188 2.79101 18.8771 2.23306 18.3208 1.67719C17.7645 1.12091 17.2082 0.77922 16.5499 0.523995C15.9123 0.276689 15.1852 0.108136 14.1205 0.0593824C13.0538 0.0108385 12.7142 -0.0010376 9.99736 -0.0010376H10.0005ZM9.10334 1.80116C9.27749 1.80089 9.46484 1.80097 9.667 1.80106H9.66717L10.0005 1.80116C12.6706 1.80116 12.9871 1.81074 14.0416 1.85866C15.0166 1.90325 15.5458 2.06618 15.8984 2.20306C16.365 2.38432 16.6978 2.601 17.0476 2.95102C17.3976 3.30104 17.6143 3.6344 17.796 4.10109C17.9329 4.4532 18.096 4.9824 18.1404 5.95746C18.1883 7.01169 18.1987 7.32838 18.1987 9.9973C18.1987 12.6662 18.1883 12.9829 18.1404 14.0371C18.0958 15.0122 17.9329 15.5414 17.796 15.8935C17.6147 16.3602 17.3976 16.6925 17.0476 17.0423C16.6976 17.3923 16.3653 17.609 15.8984 17.7903C15.5462 17.9278 15.0166 18.0903 14.0416 18.1349C12.9873 18.1828 12.6706 18.1932 10.0005 18.1932C7.33011 18.1932 7.01363 18.1828 5.9594 18.1349C4.98434 18.0899 4.45514 17.927 4.10241 17.7901C3.63571 17.6088 3.30236 17.3921 2.95233 17.0421C2.60231 16.6921 2.38563 16.3596 2.20395 15.8927C2.06707 15.5406 1.90393 15.0114 1.85956 14.0363C1.81164 12.9821 1.80205 12.6654 1.80205 9.9948C1.80205 7.32421 1.81164 7.00919 1.85956 5.95496C1.90414 4.9799 2.06707 4.4507 2.20395 4.09818C2.38521 3.63148 2.60231 3.29813 2.95233 2.94811C3.30236 2.59808 3.63571 2.3814 4.10241 2.19973C4.45493 2.06222 4.98434 1.89971 5.9594 1.85491C6.88195 1.81324 7.23948 1.80074 9.10334 1.79866V1.80116ZM15.3387 3.46168C14.6762 3.46168 14.1387 3.99859 14.1387 4.66134C14.1387 5.32388 14.6762 5.86141 15.3387 5.86141C16.0013 5.86141 16.5388 5.32388 16.5388 4.66134C16.5388 3.9988 16.0013 3.46126 15.3387 3.46126V3.46168ZM4.86474 9.99959C4.86474 7.16344 7.16415 4.86396 10.0003 4.86385C12.8365 4.86385 15.1354 7.16337 15.1354 9.99959C15.1354 12.8358 12.8367 15.1343 10.0005 15.1343C7.16426 15.1343 4.86474 12.8358 4.86474 9.99959ZM13.334 9.99959C13.334 8.15843 11.8414 6.66605 10.0005 6.66605C8.15933 6.66605 6.66694 8.15843 6.66694 9.99959C6.66694 11.8405 8.15933 13.3331 10.0005 13.3331C11.8414 13.3331 13.334 11.8405 13.334 9.99959Z" fill="#808080"/>
</svg>
